<svg width="227" height="227" viewBox="0 0 227 227" fill="none" xmlns="http://www.w3.org/2000/svg">
<path d="M97.2203 0V131.276H129.78V0H97.2203ZM33.2381 33.2381C12.6986 53.7776 0 82.1577 0 113.5C0 176.184 50.8157 227 113.5 227C176.184 227 227 176.184 227 113.5C227 82.1577 214.301 53.7776 193.762 33.2381L170.901 56.0989C185.592 70.7892 194.676 91.0856 194.676 113.5C194.676 158.329 158.329 194.676 113.5 194.676C68.6711 194.676 32.3237 158.329 32.3237 113.5C32.3237 91.0856 41.4084 70.7892 56.0989 56.0989L33.2381 33.2381Z" fill="#FFA71F"/>
</svg>
