<svg width="20" height="22" viewBox="0 0 20 22" fill="none" xmlns="http://www.w3.org/2000/svg">
<path d="M19.7495 10.7354C20.112 10.2849 20.077 9.59447 19.6713 9.19364L10.733 0.357694C10.3273 -0.0431363 9.67687 -0.0347397 9.27971 0.376623L0.311057 9.66474C-0.0861094 10.0761 -0.105603 10.7657 0.267898 11.2043L0.492755 11.4688C0.8658 11.9075 1.46879 11.9598 1.8387 11.5853L2.50897 10.9072V20.8353C2.50897 21.4444 2.94584 21.9375 3.48461 21.9375H6.98061C7.51938 21.9375 7.95625 21.4444 7.95625 20.8353V13.8896H12.4154V20.8353C12.4077 21.4439 12.7932 21.9371 13.332 21.9371H17.0368C17.5756 21.9371 18.0125 21.4439 18.0125 20.8348V11.0469C18.0125 11.0469 18.1976 11.2302 18.426 11.457C18.654 11.6833 19.1329 11.5018 19.4954 11.0509L19.7495 10.7354Z" fill="#FFA71F"/>
</svg>
