<svg width="38" height="30" viewBox="0 0 38 30" fill="none" xmlns="http://www.w3.org/2000/svg">
<rect width="38" height="30" rx="8" fill="#FFA71F"/>
<rect width="22" height="20" transform="translate(8 5)" fill="#FFA71F"/>
<path d="M27.2993 21.7052C27.5544 21.937 27.5544 22.313 27.2993 22.5448C27.0443 22.7767 26.6307 22.7767 26.3757 22.5448L23.2407 19.6948C22.9856 19.463 22.9856 19.087 23.2407 18.8552C23.4957 18.6233 23.9093 18.6233 24.1643 18.8552L27.2993 21.7052ZM17.4325 19.8688C13.609 19.8688 10.5094 17.0509 10.5094 13.575C10.5094 10.0991 13.609 7.28125 17.4325 7.28125C21.256 7.28125 24.3556 10.0991 24.3556 13.575C24.3556 17.0509 21.256 19.8688 17.4325 19.8688ZM17.4325 18.6813C20.5346 18.6813 23.0494 16.3951 23.0494 13.575C23.0494 10.7549 20.5346 8.46875 17.4325 8.46875C14.3304 8.46875 11.8156 10.7549 11.8156 13.575C11.8156 16.3951 14.3304 18.6813 17.4325 18.6813ZM14.2104 13.1C14.2104 13.3186 14.0155 13.4958 13.775 13.4958C13.5345 13.4958 13.3396 13.3186 13.3396 13.1C13.3396 11.3074 14.9381 9.85417 16.91 9.85417C17.1505 9.85417 17.3454 10.0314 17.3454 10.25C17.3454 10.4686 17.1505 10.6458 16.91 10.6458C15.4191 10.6458 14.2104 11.7446 14.2104 13.1Z" fill="white" stroke="white" stroke-width="0.5"/>
</svg>
