<svg width="23" height="22" viewBox="0 0 23 22" fill="none" xmlns="http://www.w3.org/2000/svg">
<path d="M1.92539 2.09475C-0.402214 4.627 -0.402214 8.73257 1.92539 11.2649L11.5 21.6814L21.0747 11.2649C23.4023 8.73267 23.4023 4.6271 21.0747 2.09484L21.0746 2.09475C18.747 -0.437506 14.9732 -0.437506 12.6456 2.09475L11.5 3.34101L10.3545 2.09475C8.02678 -0.437506 4.253 -0.437506 1.92539 2.09475Z" fill="#FFA71F"/>
<path d="M21.0746 2.09476L21.0744 2.09466C19.7745 0.680446 18.0236 0.0569179 16.3254 0.222285C17.6679 0.35299 18.9776 0.976617 20.0053 2.09466L20.0054 2.09476C22.333 4.62701 22.3907 8.12296 20.0054 11.2649L11.5 21.6813L21.0746 11.2649C23.4022 8.73258 23.4022 4.62701 21.0746 2.09476Z" fill="#FFA71F"/>
<path d="M1.92539 2.09476L1.92548 2.09466C3.22541 0.680446 4.97631 0.0569179 6.67455 0.222285C5.33199 0.35299 4.0223 0.976617 2.99462 2.09466L2.99453 2.09476C0.666918 4.62701 0.609221 8.12296 2.99453 11.2649L11.5 21.6813L1.92539 11.2649C-0.402214 8.73258 -0.402214 4.62701 1.92539 2.09476Z" fill="#FFA71F"/>
<path d="M8.91742 15.827C7.86436 16.0916 7.0283 14.8623 7.56866 13.8441L8.82348 11.4796C10.013 9.23808 12.987 9.23808 14.1765 11.4796L15.4314 13.8441C15.9717 14.8623 15.1356 16.0916 14.0826 15.827C12.3833 15.4001 10.6168 15.4001 8.91742 15.827Z" fill="white"/>
<path d="M9.95198 9.10526C10.6511 8.98775 11.0801 7.92293 10.9103 6.72693C10.7404 5.53093 10.036 4.65664 9.33687 4.77416C8.63776 4.89167 8.20871 5.95649 8.37857 7.15249C8.54843 8.34849 9.25287 9.22278 9.95198 9.10526Z" fill="white"/>
<path d="M14.6228 7.15308C14.7927 5.95707 14.3636 4.89226 13.6645 4.77474C12.9654 4.65723 12.261 5.53151 12.0911 6.72751C11.9213 7.92352 12.3503 8.98833 13.0494 9.10585C13.7485 9.22336 14.453 8.34908 14.6228 7.15308Z" fill="white"/>
<path d="M5.78799 10.4567C6.37272 11.3576 7.2736 11.7601 7.80018 11.3556C8.32676 10.951 8.27974 9.89277 7.69501 8.99185C7.11037 8.09092 6.2094 7.68847 5.68282 8.093C5.15624 8.49753 5.20335 9.55578 5.78799 10.4567Z" fill="white"/>
<path d="M17.212 10.4567C16.6273 11.3576 15.7264 11.7601 15.1999 11.3556C14.6733 10.951 14.7203 9.89277 15.3049 8.99185C15.8897 8.09092 16.7905 7.68847 17.3171 8.093C17.8438 8.49753 17.7967 9.55578 17.212 10.4567Z" fill="white"/>
<path d="M9.82114 9.315C9.06871 9.315 8.37342 8.42103 8.19759 7.18301C8.00952 5.85858 8.49758 4.71452 9.30853 4.57815C9.71068 4.51111 10.119 4.70548 10.4589 5.12729C10.7786 5.52417 11.0028 6.08155 11.0902 6.69684C11.2782 8.02116 10.7902 9.16533 9.97926 9.30179C9.9264 9.31073 9.87364 9.315 9.82114 9.315ZM8.55847 7.12232C8.71011 8.18981 9.33702 9.00681 9.92339 8.90918C10.5117 8.81026 10.8807 7.82491 10.7292 6.75762C10.6523 6.21603 10.4587 5.73006 10.1841 5.3893C9.9296 5.07336 9.63819 4.92508 9.36431 4.97086C8.77602 5.06969 8.40701 6.05494 8.55847 7.12232Z" fill="#FFA71F"/>
<path d="M13.179 9.31502C13.1265 9.31502 13.0738 9.31075 13.0209 9.30181C12.2099 9.16545 11.722 8.02118 11.9099 6.69686C11.9973 6.08167 12.2215 5.52419 12.5412 5.12731C12.8811 4.7057 13.2895 4.51103 13.6916 4.57817C14.5026 4.71444 14.9906 5.8586 14.8025 7.18303C14.6266 8.42095 13.9312 9.31502 13.179 9.31502ZM13.5369 4.96264C13.2925 4.96264 13.04 5.11112 12.8158 5.38932C12.5412 5.73018 12.3477 6.21605 12.2707 6.75764C12.1193 7.82493 12.4883 8.81028 13.0766 8.9092C13.6637 9.00862 14.2899 8.18973 14.4415 7.12234C14.5929 6.05496 14.2239 5.06971 13.6356 4.97088C13.603 4.96532 13.57 4.96264 13.5369 4.96264ZM14.622 7.15274H14.6229H14.622Z" fill="#FFA71F"/>
<path d="M14.3704 16.0616C14.2619 16.0616 14.1517 16.0481 14.0414 16.0205C12.3787 15.6027 10.6211 15.6028 8.95841 16.0204C8.95841 16.0204 8.95841 16.0204 8.95841 16.0205C8.39896 16.1606 7.83988 15.9364 7.49863 15.4346C7.15738 14.9329 7.1236 14.2854 7.41035 13.7447L8.66517 11.3801C9.25684 10.2652 10.3166 9.59961 11.4999 9.59961C12.6833 9.59961 13.7429 10.2652 14.3347 11.3801L15.5895 13.7447C15.8763 14.2853 15.8424 14.9329 15.5012 15.4346C15.2272 15.8375 14.8127 16.0616 14.3704 16.0616ZM8.91742 15.8269H8.91833H8.91742ZM11.5 15.31C12.3827 15.31 13.2655 15.4177 14.1237 15.6335C14.5385 15.7373 14.9543 15.571 15.2078 15.1984C15.4611 14.8257 15.4863 14.3448 15.2732 13.9434L14.0184 11.5788C13.4927 10.5882 12.5513 9.99689 11.5 9.99689C10.4487 9.99689 9.50726 10.5882 8.98159 11.5788L7.72677 13.9434C7.51369 14.3448 7.5388 14.8257 7.79223 15.1984C8.04575 15.5711 8.46104 15.738 8.87633 15.6334C9.73449 15.4177 10.6173 15.31 11.5 15.31Z" fill="#FFA71F"/>
<path d="M7.31843 11.7124C7.13812 11.7124 6.94522 11.6683 6.74648 11.5795C6.33475 11.3955 5.94136 11.0376 5.63873 10.5713C5.33627 10.1052 5.1577 9.58203 5.13625 9.09834C5.11324 8.58168 5.2699 8.16702 5.57747 7.93084C5.88494 7.69466 6.29658 7.67261 6.73643 7.86916C7.14826 8.0532 7.54164 8.41115 7.84418 8.87735C8.14664 9.34346 8.32521 9.86668 8.34666 10.3504C8.36967 10.867 8.21301 11.2817 7.90544 11.5179C7.73691 11.6474 7.53707 11.7124 7.31843 11.7124ZM5.93707 10.3422C6.20018 10.7474 6.53678 11.0563 6.88524 11.212C7.20559 11.3551 7.49298 11.3483 7.69492 11.1933C7.89677 11.0381 7.99874 10.7457 7.98204 10.3695C7.96387 9.96033 7.80895 9.51171 7.54602 9.10639C7.28301 8.70116 6.94632 8.39228 6.59794 8.23664C6.27769 8.09342 5.99011 8.10008 5.78817 8.25532C5.58632 8.41045 5.48435 8.70295 5.50106 9.07907C5.51922 9.48827 5.67415 9.9369 5.93707 10.3422Z" fill="#FFA71F"/>
<path d="M15.6817 11.7124C15.4629 11.7124 15.2631 11.6473 15.0945 11.5178C14.7869 11.2816 14.6302 10.8669 14.6532 10.3503C14.6747 9.8666 14.8533 9.34339 15.1557 8.87728C15.4583 8.41107 15.8517 8.05303 16.2635 7.86909C16.7034 7.67263 17.115 7.69468 17.4224 7.93077C17.73 8.16695 17.8867 8.58161 17.8637 9.09827C17.8422 9.58195 17.6636 10.1052 17.3612 10.5713C17.0586 11.0375 16.6652 11.3955 16.2534 11.5795C16.0548 11.6683 15.8618 11.7124 15.6817 11.7124ZM16.8339 8.13397C16.7013 8.13397 16.5555 8.16814 16.4022 8.23667C16.0539 8.3922 15.7171 8.70119 15.4541 9.10641C15.1911 9.51173 15.0362 9.96036 15.0181 10.3696C15.0013 10.7457 15.1033 11.0382 15.3052 11.1933C15.507 11.3484 15.7946 11.3551 16.1149 11.212C16.4632 11.0565 16.7999 10.7475 17.063 10.3422C17.326 9.93692 17.4809 9.48829 17.499 9.0791C17.5158 8.70297 17.4138 8.41048 17.2119 8.25534C17.1067 8.1745 16.9781 8.13397 16.8339 8.13397ZM17.212 10.4567H17.2129H17.212Z" fill="#FFA71F"/>
<path d="M11.5 21.88C11.4533 21.88 11.4066 21.8606 11.3709 21.8218L1.7963 11.4054C-0.598768 8.79971 -0.598768 4.55996 1.7963 1.95431C4.19129 -0.65104 8.08849 -0.651238 10.4835 1.95431L11.4999 3.06013L12.5164 1.95431C14.9114 -0.651437 18.8087 -0.651437 21.2036 1.95431C23.5987 4.55996 23.5988 8.79981 21.2037 11.4055L11.6291 21.8218C11.5934 21.8606 11.5468 21.88 11.5 21.88ZM6.13984 0.39708C4.66035 0.39708 3.18085 1.00978 2.05448 2.23519C0.963255 3.42235 0.362274 5.00094 0.362274 6.67984C0.362274 8.35873 0.963255 9.93732 2.05448 11.1245L11.5 21.4005L20.9456 11.1246C23.1982 8.67368 23.1982 4.6861 20.9456 2.23529C18.6927 -0.215623 15.0272 -0.215523 12.7746 2.23519L11.629 3.48145C11.5577 3.55902 11.4421 3.55902 11.3708 3.48145L10.2253 2.23519C9.09892 1.00978 7.61943 0.39708 6.13984 0.39708Z" fill="#FFA71F"/>
<path d="M1.7617 4.33994C1.73586 4.33994 1.70966 4.33398 1.68474 4.32137C1.59326 4.27509 1.55373 4.1569 1.59618 4.05748C1.7942 3.59465 2.06497 3.17453 2.40102 2.80903C2.47232 2.73146 2.5879 2.73146 2.6592 2.80903C2.7305 2.8866 2.7305 3.01234 2.6592 3.08991C2.35337 3.42263 2.10715 3.80451 1.9273 4.22513C1.89644 4.29753 1.83044 4.33994 1.7617 4.33994Z" fill="#FFA71F"/>
</svg>
