<svg width="140" height="150" viewBox="0 0 140 150" fill="none" xmlns="http://www.w3.org/2000/svg">
<path d="M15.1468 45.9644C-7.29937 72.382 -4.06806 112.139 22.3495 134.585C48.7672 157.031 88.5243 153.8 110.97 127.383C131.674 103.016 130.535 67.3033 109.5 44.2915L116.844 35.6481L126.757 44.0707C128.364 45.4358 130.447 46.1067 132.548 45.9359C134.65 45.7651 136.597 44.7666 137.962 43.16C139.327 41.5533 139.998 39.4702 139.827 37.3689C139.657 35.2675 138.658 33.3201 137.051 31.955L127.139 23.5324L135.561 13.6196C136.926 12.013 137.597 9.9299 137.426 7.82857C137.256 5.72723 136.257 3.7798 134.65 2.4147C133.044 1.0496 130.961 0.378646 128.859 0.549434C126.758 0.720223 124.811 1.71876 123.446 3.3254L115.023 13.2382L105.11 4.81562C103.504 3.45052 101.42 2.77957 99.3191 2.95036C97.2177 3.12115 95.2703 4.11969 93.9052 5.72632C92.5401 7.33295 91.8691 9.41607 92.0399 11.5174C92.2107 13.6187 93.2093 15.5662 94.8159 16.9313L104.729 25.3538L97.3847 33.9972C71.2781 16.9551 35.8499 21.5982 15.1468 45.9644ZM98.8548 117.088C82.0846 136.826 52.3813 139.24 32.6438 122.47C12.9063 105.699 10.4921 75.9961 27.2624 56.2586C44.0327 36.5212 73.736 34.107 93.4735 50.8773C113.211 67.6475 115.625 97.3508 98.8548 117.088Z" fill="#7F92A4"/>
</svg>
