<svg width="53" height="61" viewBox="0 0 53 61" fill="none" xmlns="http://www.w3.org/2000/svg">
<path d="M30.464 9.8849V5.14806H32.6262C34.0477 5.14806 35.2002 3.99551 35.2002 2.57403C35.2002 1.15255 34.0479 0 32.6262 0H20.3738C18.9523 0 17.7998 1.15255 17.7998 2.57403C17.7998 3.99551 18.9523 5.14806 20.3738 5.14806H22.536V9.8849C10.2346 11.7969 0.789764 22.4608 0.789764 35.2896C0.789764 49.4663 12.3235 60.9998 26.5 60.9998C40.6765 60.9998 52.2102 49.4661 52.2102 35.2896C52.2102 22.4608 42.7654 11.7969 30.464 9.8849V9.8849ZM26.5 55.8519C15.1619 55.8519 5.93783 46.6276 5.93783 35.2898C5.93783 23.9519 15.1621 14.7276 26.5 14.7276C37.8379 14.7276 47.0622 23.9519 47.0622 35.2898C47.0622 46.6276 37.8381 55.8519 26.5 55.8519V55.8519Z" fill="#7F92A4"/>
<path d="M29.074 34.2202V22.0936C29.074 20.6721 27.9215 19.5196 26.5 19.5196C25.0785 19.5196 23.926 20.6721 23.926 22.0936V35.7051C23.926 36.1237 24.0928 36.5251 24.3893 36.8204L31.5902 43.991C32.5978 44.9943 34.2272 44.9906 35.2305 43.9834C36.2335 42.976 36.23 41.3461 35.2229 40.3431L29.074 34.2202V34.2202Z" fill="#7F92A4"/>
</svg>
