<svg width="22" height="20" viewBox="0 0 22 20" fill="none" xmlns="http://www.w3.org/2000/svg">
<g opacity="0.5">
<path d="M1.84168 1.91472C-0.384727 4.22939 -0.384727 7.9822 1.84168 10.297L11 19.8184L20.1584 10.297C22.3848 7.98229 22.3848 4.22948 20.1584 1.91481L20.1583 1.91472C17.9319 -0.399957 14.3222 -0.399957 12.0958 1.91472L11 3.05389L9.90428 1.91472C7.67779 -0.399957 4.06809 -0.399957 1.84168 1.91472Z" fill="#7F92A4"/>
<path d="M20.1583 1.91479L20.1582 1.9147C18.9148 0.622 17.24 0.0520475 15.6156 0.203206C16.8998 0.32268 18.1525 0.892723 19.1355 1.9147L19.1356 1.91479C21.362 4.22946 21.4172 7.42503 19.1356 10.297L11 19.8184L20.1583 10.297C22.3848 7.98227 22.3848 4.22946 20.1583 1.91479Z" fill="#7F92A4"/>
<path d="M1.84168 1.91479L1.84177 1.9147C3.08517 0.622 4.75995 0.0520475 6.38435 0.203206C5.10017 0.32268 3.84742 0.892723 2.86442 1.9147L2.86433 1.91479C0.637922 4.22946 0.582733 7.42503 2.86433 10.297L11 19.8184L1.84168 10.297C-0.384727 7.98227 -0.384727 4.22946 1.84168 1.91479Z" fill="#7F92A4"/>
<path d="M8.52971 14.4671C7.52243 14.709 6.72272 13.5853 7.23959 12.6546L8.43985 10.4932C9.57768 8.44431 12.4223 8.44431 13.5602 10.4932L14.7604 12.6546C15.2773 13.5853 14.4775 14.709 13.4703 14.4671C11.8449 14.0768 10.1552 14.0768 8.52971 14.4671Z" fill="white"/>
<path d="M9.51928 8.32293C10.188 8.21552 10.5984 7.24219 10.4359 6.14896C10.2734 5.05572 9.59963 4.25656 8.93091 4.36397C8.26219 4.47139 7.8518 5.44471 8.01427 6.53795C8.17675 7.63119 8.85056 8.43035 9.51928 8.32293Z" fill="white"/>
<path d="M13.9871 6.53842C14.1495 5.44518 13.7391 4.47186 13.0704 4.36444C12.4017 4.25703 11.7279 5.05619 11.5654 6.14943C11.403 7.24266 11.8133 8.21599 12.4821 8.3234C13.1508 8.43082 13.8246 7.63166 13.9871 6.53842Z" fill="white"/>
<path d="M5.53633 9.55821C6.09564 10.3817 6.95735 10.7496 7.46103 10.3798C7.96472 10.01 7.91974 9.04273 7.36044 8.21921C6.80121 7.39569 5.93942 7.02783 5.43573 7.3976C4.93205 7.76737 4.97711 8.73469 5.53633 9.55821Z" fill="white"/>
<path d="M16.4637 9.55821C15.9044 10.3817 15.0427 10.7496 14.539 10.3798C14.0353 10.01 14.0803 9.04273 14.6395 8.21921C15.1988 7.39569 16.0605 7.02783 16.5642 7.3976C17.068 7.76737 17.0229 8.73469 16.4637 9.55821Z" fill="white"/>
<path d="M9.39413 8.51467C8.67441 8.51467 8.00935 7.69751 7.84116 6.56586C7.66128 5.35524 8.12811 4.30948 8.90381 4.18483C9.28847 4.12355 9.67907 4.30121 10.0042 4.68678C10.31 5.04956 10.5244 5.55905 10.608 6.12147C10.7878 7.332 10.3211 8.37786 9.54537 8.5026C9.49481 8.51077 9.44434 8.51467 9.39413 8.51467ZM8.18635 6.51039C8.3314 7.48616 8.93105 8.23296 9.49193 8.14372C10.0546 8.0533 10.4076 7.15261 10.2627 6.17703C10.1891 5.68197 10.004 5.23776 9.74133 4.92627C9.49787 4.63748 9.21913 4.50194 8.95716 4.54379C8.39445 4.63413 8.04148 5.53472 8.18635 6.51039Z" fill="#7F92A4"/>
<path d="M12.606 8.51469C12.5558 8.51469 12.5054 8.51078 12.4547 8.50261C11.679 8.37796 11.2123 7.33202 11.3921 6.12149C11.4757 5.55916 11.6901 5.04958 11.9959 4.6868C12.321 4.30141 12.7116 4.12347 13.0963 4.18485C13.872 4.3094 14.3388 5.35525 14.159 6.56588C13.9907 7.69744 13.3255 8.51469 12.606 8.51469ZM12.9483 4.53628C12.7145 4.53628 12.473 4.672 12.2586 4.92629C11.9959 5.23787 11.8108 5.68199 11.7372 6.17705C11.5923 7.15263 11.9453 8.05331 12.508 8.14374C13.0696 8.23461 13.6686 7.48609 13.8136 6.51041C13.9585 5.53474 13.6055 4.63414 13.0428 4.54381C13.0115 4.53873 12.98 4.53628 12.9483 4.53628ZM13.9862 6.53819H13.9871H13.9862Z" fill="#7F92A4"/>
<path d="M13.7456 14.6816C13.6418 14.6816 13.5364 14.6692 13.4309 14.644C11.8405 14.2621 10.1593 14.2621 8.5689 14.6439C8.5689 14.6439 8.5689 14.6439 8.5689 14.644C8.03378 14.772 7.49901 14.5671 7.17259 14.1084C6.84618 13.6498 6.81387 13.058 7.08815 12.5637L8.28842 10.4023C8.85436 9.38314 9.86802 8.77478 10.9999 8.77478C12.1318 8.77478 13.1454 9.38314 13.7114 10.4023L14.9117 12.5637C15.186 13.0579 15.1536 13.6498 14.8272 14.1084C14.5652 14.4767 14.1686 14.6816 13.7456 14.6816ZM8.52969 14.467H8.53057H8.52969ZM11 13.9945C11.8443 13.9945 12.6887 14.093 13.5096 14.2902C13.9064 14.3851 14.3041 14.2331 14.5466 13.8925C14.7889 13.5518 14.813 13.1122 14.6092 12.7453L13.4089 10.5839C12.9061 9.67846 12.0056 9.13792 11 9.13792C9.99437 9.13792 9.09389 9.67846 8.59108 10.5839L7.39082 12.7453C7.187 13.1122 7.21102 13.5518 7.45343 13.8925C7.69593 14.2332 8.09316 14.3857 8.4904 14.2901C9.31124 14.093 10.1557 13.9945 11 13.9945Z" fill="#7F92A4"/>
<path d="M7.00025 10.7061C6.82778 10.7061 6.64327 10.6658 6.45316 10.5846C6.05933 10.4164 5.68306 10.0892 5.39358 9.66307C5.10427 9.23701 4.93347 8.75875 4.91295 8.31663C4.89094 7.84436 5.04079 7.46533 5.33498 7.24944C5.62909 7.03355 6.02283 7.0134 6.44356 7.19306C6.83748 7.36129 7.21375 7.68848 7.50315 8.11463C7.79245 8.54069 7.96325 9.01895 7.98378 9.46107C8.00578 9.93334 7.85593 10.3124 7.56174 10.5283C7.40054 10.6466 7.20939 10.7061 7.00025 10.7061ZM5.67895 9.45363C5.93062 9.82403 6.25258 10.1064 6.5859 10.2486C6.89232 10.3795 7.16721 10.3733 7.36037 10.2316C7.55344 10.0898 7.65098 9.8224 7.635 9.47859C7.61763 9.10456 7.46944 8.69448 7.21795 8.32398C6.96637 7.95358 6.64432 7.67123 6.31109 7.52897C6.00476 7.39806 5.72969 7.40414 5.53653 7.54604C5.34345 7.68785 5.24591 7.95521 5.26189 8.29902C5.27927 8.67305 5.42746 9.08313 5.67895 9.45363Z" fill="#7F92A4"/>
<path d="M14.9999 10.706C14.7906 10.706 14.5995 10.6466 14.4382 10.5282C14.144 10.3123 13.9942 9.93327 14.0162 9.46101C14.0367 9.01888 14.2075 8.54062 14.4968 8.11456C14.7862 7.68841 15.1625 7.36113 15.5564 7.193C15.9772 7.01342 16.3708 7.03358 16.665 7.24938C16.9591 7.46526 17.109 7.84429 17.087 8.31656C17.0665 8.75869 16.8957 9.23695 16.6064 9.663C16.317 10.0892 15.9406 10.4164 15.5468 10.5846C15.3568 10.6657 15.1722 10.706 14.9999 10.706ZM16.102 7.43512C15.9752 7.43512 15.8357 7.46635 15.689 7.52899C15.3559 7.67116 15.0337 7.9536 14.7822 8.32401C14.5306 8.6945 14.3825 9.10458 14.3651 9.47862C14.349 9.82242 14.4467 10.0898 14.6397 10.2316C14.8328 10.3733 15.1079 10.3795 15.4142 10.2487C15.7474 10.1065 16.0695 9.82406 16.3212 9.45365C16.5727 9.08316 16.7208 8.67308 16.7382 8.29904C16.7543 7.95523 16.6567 7.68787 16.4636 7.54606C16.3629 7.47216 16.2399 7.43512 16.102 7.43512ZM16.4637 9.55824H16.4645H16.4637Z" fill="#7F92A4"/>
<path d="M11 20C10.9553 20 10.9107 19.9823 10.8765 19.9468L1.7182 10.4254C-0.572735 8.04361 -0.572735 4.16815 1.7182 1.78639C4.00906 -0.5951 7.73682 -0.595282 10.0277 1.78639L10.9999 2.7972L11.9722 1.78639C14.263 -0.595463 17.9909 -0.595463 20.2818 1.78639C22.5727 4.16815 22.5728 8.0437 20.2818 10.4255L11.1235 19.9468C11.0894 19.9823 11.0447 20 11 20ZM5.87289 0.362961C4.45773 0.362961 3.04256 0.923018 1.96516 2.04313C0.921375 3.12829 0.346523 4.57124 0.346523 6.10588C0.346523 7.64053 0.921375 9.08347 1.96516 10.1686L11 19.5617L20.0349 10.1687C22.1896 7.92841 22.1896 4.28345 20.0349 2.04322C17.88 -0.197096 14.3739 -0.197005 12.2191 2.04313L11.1234 3.18231C11.0552 3.25322 10.9447 3.25322 10.8765 3.18231L9.78072 2.04313C8.70332 0.923018 7.28815 0.362961 5.87289 0.362961Z" fill="#7F92A4"/>
<path d="M1.68509 3.96707C1.66038 3.96707 1.63532 3.96163 1.61148 3.9501C1.52398 3.90779 1.48617 3.79976 1.52678 3.70888C1.71618 3.28582 1.97518 2.9018 2.29662 2.5677C2.36482 2.4968 2.47537 2.4968 2.54357 2.5677C2.61177 2.63861 2.61177 2.75354 2.54357 2.82445C2.25104 3.12858 2.01553 3.47765 1.8435 3.86213C1.81398 3.92831 1.75085 3.96707 1.68509 3.96707Z" fill="#7F92A4"/>
</g>
</svg>
