<svg width="127" height="175" viewBox="0 0 127 175" fill="none" xmlns="http://www.w3.org/2000/svg">
<path d="M126.371 63.6523C126.371 28.9865 98.1658 0.78125 63.5 0.78125C28.8342 0.78125 0.628906 28.9865 0.628906 63.6523C0.628906 95.6263 24.6211 122.104 55.5508 126.021V137.363H42.543C40.4347 137.363 38.4128 138.201 36.922 139.692C35.4313 141.182 34.5938 143.204 34.5938 145.312C34.5938 147.421 35.4313 149.443 36.922 150.933C38.4128 152.424 40.4347 153.262 42.543 153.262H55.5508V166.27C55.5508 168.378 56.3883 170.4 57.8791 171.89C59.3698 173.381 61.3917 174.219 63.5 174.219C65.6083 174.219 67.6302 173.381 69.1209 171.89C70.6117 170.4 71.4492 168.378 71.4492 166.27V153.262H84.457C86.5653 153.262 88.5872 152.424 90.078 150.933C91.5687 149.443 92.4062 147.421 92.4062 145.312C92.4062 143.204 91.5687 141.182 90.078 139.692C88.5872 138.201 86.5653 137.363 84.457 137.363H71.4492V126.021C102.379 122.104 126.371 95.6263 126.371 63.6523ZM16.5273 63.6523C16.5273 37.7523 37.6 16.6797 63.5 16.6797C89.4 16.6797 110.473 37.7523 110.473 63.6523C110.473 89.5523 89.4 110.625 63.5 110.625C37.6 110.625 16.5273 89.5523 16.5273 63.6523Z" fill="#7F92A4"/>
</svg>
